<mxfile host="app.diagrams.net" modified="2023-10-13T19:23:15.436Z" agent="Mozilla/5.0 (Windows NT 10.0; Win64; x64) AppleWebKit/537.36 (KHTML, like Gecko) Chrome/118.0.0.0 Safari/537.36" etag="s4c2xiKi_AG_G6P8O9hQ" version="22.0.4" type="device">
  <diagram name="PÃ¡gina-1" id="0Rx4JHr9Z3dj-bmcbJHB">
    <mxGraphModel dx="1706" dy="1054" grid="1" gridSize="10" guides="1" tooltips="1" connect="1" arrows="1" fold="1" page="1" pageScale="1" pageWidth="827" pageHeight="1169" background="#000000" math="0" shadow="0">
      <root>
        <mxCell id="0" />
        <mxCell id="1" parent="0" />
        <mxCell id="grDKMSeKTjSGlt3fIqvZ-6" style="edgeStyle=orthogonalEdgeStyle;rounded=0;orthogonalLoop=1;jettySize=auto;html=1;entryX=0;entryY=0.5;entryDx=0;entryDy=0;strokeColor=#182E3E;" edge="1" parent="1" source="S_2G6iyT9Ug-HAIomtoZ-5" target="S_2G6iyT9Ug-HAIomtoZ-28">
          <mxGeometry relative="1" as="geometry" />
        </mxCell>
        <mxCell id="grDKMSeKTjSGlt3fIqvZ-7" value="0..*&lt;br&gt;reservas" style="edgeLabel;html=1;align=center;verticalAlign=middle;resizable=0;points=[];fontColor=#FFFFFF;" vertex="1" connectable="0" parent="grDKMSeKTjSGlt3fIqvZ-6">
          <mxGeometry x="0.1486" y="-1" relative="1" as="geometry">
            <mxPoint as="offset" />
          </mxGeometry>
        </mxCell>
        <mxCell id="S_2G6iyT9Ug-HAIomtoZ-5" value="Usuario" style="swimlane;fontStyle=0;childLayout=stackLayout;horizontal=1;startSize=30;horizontalStack=0;resizeParent=1;resizeParentMax=0;resizeLast=0;collapsible=1;marginBottom=0;whiteSpace=wrap;html=1;fillColor=#56517E;strokeColor=#EEEEEE;rounded=0;labelBackgroundColor=none;fontColor=#FFFFFF;" parent="1" vertex="1">
          <mxGeometry x="120" y="410" width="240" height="200" as="geometry" />
        </mxCell>
        <mxCell id="S_2G6iyT9Ug-HAIomtoZ-7" value="&lt;font style=&quot;font-size: 10px;&quot;&gt;&lt;b&gt;- nombre&lt;/b&gt; : string&lt;br&gt;&lt;b&gt;- direccion&lt;/b&gt; : String&lt;br&gt;&lt;b&gt;- dni&lt;/b&gt; : String&lt;br&gt;+ &amp;lt;&amp;lt;create&amp;gt;&amp;gt; Usuario (nombre : String, direccion : String , dni : String)&lt;br&gt;+ agregarPropiedad(propiedad: Propiedad)&lt;br&gt;+ removerReserva(reserva : Reserva)&lt;br&gt;+ hacerReserva(prop: Propiedad,&amp;nbsp;fechaInicio : Date, fechaFin : Date, inquilino: Usuario)&lt;br&gt;+ ingresosPropietario(fechaInicio : Date, fechaFin : Date): real&lt;br&gt;&lt;/font&gt;" style="text;strokeColor=#EEEEEE;fillColor=#56517E;align=left;verticalAlign=middle;spacingLeft=4;spacingRight=4;overflow=hidden;points=[[0,0.5],[1,0.5]];portConstraint=eastwest;rotatable=0;whiteSpace=wrap;html=1;rounded=0;labelBackgroundColor=none;fontColor=#FFFFFF;" parent="S_2G6iyT9Ug-HAIomtoZ-5" vertex="1">
          <mxGeometry y="30" width="240" height="170" as="geometry" />
        </mxCell>
        <mxCell id="S_2G6iyT9Ug-HAIomtoZ-50" value="" style="endArrow=none;html=1;rounded=0;labelBackgroundColor=none;strokeColor=#182E3E;fontColor=default;" parent="S_2G6iyT9Ug-HAIomtoZ-5" edge="1">
          <mxGeometry width="50" height="50" relative="1" as="geometry">
            <mxPoint y="80" as="sourcePoint" />
            <mxPoint x="240" y="80" as="targetPoint" />
            <Array as="points">
              <mxPoint x="120" y="80" />
            </Array>
          </mxGeometry>
        </mxCell>
        <mxCell id="S_2G6iyT9Ug-HAIomtoZ-56" style="edgeStyle=orthogonalEdgeStyle;rounded=0;orthogonalLoop=1;jettySize=auto;html=1;exitX=0.708;exitY=0.98;exitDx=0;exitDy=0;exitPerimeter=0;labelBackgroundColor=none;strokeColor=#182E3E;fontColor=default;" parent="1" source="S_2G6iyT9Ug-HAIomtoZ-19" target="S_2G6iyT9Ug-HAIomtoZ-28" edge="1">
          <mxGeometry relative="1" as="geometry">
            <Array as="points">
              <mxPoint x="680" y="158" />
            </Array>
            <mxPoint x="730" y="150" as="sourcePoint" />
            <mxPoint x="790" y="320" as="targetPoint" />
          </mxGeometry>
        </mxCell>
        <mxCell id="S_2G6iyT9Ug-HAIomtoZ-81" value="* reservas" style="edgeLabel;html=1;align=center;verticalAlign=middle;resizable=0;points=[];rounded=0;labelBackgroundColor=none;fontColor=#FFFFFF;" parent="S_2G6iyT9Ug-HAIomtoZ-56" vertex="1" connectable="0">
          <mxGeometry x="-0.3759" relative="1" as="geometry">
            <mxPoint as="offset" />
          </mxGeometry>
        </mxCell>
        <mxCell id="S_2G6iyT9Ug-HAIomtoZ-18" value="Propiedad" style="swimlane;fontStyle=0;childLayout=stackLayout;horizontal=1;startSize=30;horizontalStack=0;resizeParent=1;resizeParentMax=0;resizeLast=0;collapsible=1;marginBottom=0;whiteSpace=wrap;html=1;fillColor=#56517E;strokeColor=#EEEEEE;rounded=0;labelBackgroundColor=none;fontColor=#FFFFFF;" parent="1" vertex="1">
          <mxGeometry x="560" y="30" width="240" height="130" as="geometry" />
        </mxCell>
        <mxCell id="S_2G6iyT9Ug-HAIomtoZ-19" value="&lt;font style=&quot;font-size: 10px;&quot;&gt;&lt;b&gt;- nombre&lt;/b&gt; : String&lt;br&gt;&lt;b&gt;- descripcion&lt;/b&gt; : String&lt;br&gt;&lt;b&gt;- precioPorNoche&lt;/b&gt; : real&lt;br&gt;&lt;b&gt;- direccion&lt;/b&gt; : String&lt;br&gt;&lt;br&gt;&lt;/font&gt;" style="text;strokeColor=#EEEEEE;fillColor=#56517E;align=left;verticalAlign=middle;spacingLeft=4;spacingRight=4;overflow=hidden;points=[[0,0.5],[1,0.5]];portConstraint=eastwest;rotatable=0;whiteSpace=wrap;html=1;rounded=0;labelBackgroundColor=none;fontColor=#FFFFFF;" parent="S_2G6iyT9Ug-HAIomtoZ-18" vertex="1">
          <mxGeometry y="30" width="240" height="100" as="geometry" />
        </mxCell>
        <mxCell id="S_2G6iyT9Ug-HAIomtoZ-61" style="edgeStyle=orthogonalEdgeStyle;rounded=0;orthogonalLoop=1;jettySize=auto;html=1;labelBackgroundColor=none;strokeColor=#182E3E;fontColor=default;" parent="1" source="S_2G6iyT9Ug-HAIomtoZ-24" target="S_2G6iyT9Ug-HAIomtoZ-5" edge="1">
          <mxGeometry relative="1" as="geometry">
            <mxPoint x="230" y="330" as="targetPoint" />
            <Array as="points">
              <mxPoint x="180" y="310" />
              <mxPoint x="130" y="310" />
            </Array>
          </mxGeometry>
        </mxCell>
        <mxCell id="S_2G6iyT9Ug-HAIomtoZ-76" value="*&lt;br data-darkreader-inline-border=&quot;&quot; data-darkreader-inline-bgcolor=&quot;&quot; style=&quot;border-color: var(--darkreader-border--border-color); font-size: 12px; background-color: rgb(26, 28, 30); --darkreader-inline-bgcolor: #151718; --darkreader-inline-border: var(--darkreader-border--darkreader-border--border-color);&quot;&gt;&lt;span data-darkreader-inline-bgcolor=&quot;&quot; style=&quot;font-size: 12px; background-color: rgb(26, 28, 30); --darkreader-inline-bgcolor: #151718;&quot;&gt;usuarios&lt;/span&gt;" style="edgeLabel;html=1;align=center;verticalAlign=middle;resizable=0;points=[];rounded=0;labelBackgroundColor=none;fontColor=#FFFFFF;" parent="S_2G6iyT9Ug-HAIomtoZ-61" vertex="1" connectable="0">
          <mxGeometry x="0.5615" relative="1" as="geometry">
            <mxPoint as="offset" />
          </mxGeometry>
        </mxCell>
        <mxCell id="S_2G6iyT9Ug-HAIomtoZ-24" value="OOBnB" style="swimlane;fontStyle=0;childLayout=stackLayout;horizontal=1;startSize=30;horizontalStack=0;resizeParent=1;resizeParentMax=0;resizeLast=0;collapsible=1;marginBottom=0;whiteSpace=wrap;html=1;fillColor=#56517E;strokeColor=#EEEEEE;rounded=0;labelBackgroundColor=none;fontColor=#FFFFFF;" parent="1" vertex="1">
          <mxGeometry x="70" y="20" width="240" height="220" as="geometry" />
        </mxCell>
        <mxCell id="S_2G6iyT9Ug-HAIomtoZ-23" value="&lt;font style=&quot;font-size: 10px;&quot;&gt;&lt;font data-darkreader-inline-border=&quot;&quot; style=&quot;border-color: var(--darkreader-border--border-color); text-align: center; --darkreader-inline-border: var(--darkreader-border--darkreader-border--border-color); font-size: 10px;&quot;&gt;&lt;b&gt;+ registrarUsuarios&lt;/b&gt;(nombre:String, direccion:String, dni :String):Usuario&lt;br data-darkreader-inline-border=&quot;&quot; style=&quot;border-color: var(--darkreader-border--border-color); --darkreader-inline-border: var(--darkreader-border--darkreader-border--border-color);&quot;&gt;&lt;b&gt;+ registrarPropiedad&lt;/b&gt;(nombre:String, descripcion:String,&amp;nbsp;direccion:String, precioPorNoche : real) : Propiedad&lt;br data-darkreader-inline-border=&quot;&quot; style=&quot;border-color: var(--darkreader-border--border-color); --darkreader-inline-border: var(--darkreader-border--darkreader-border--border-color);&quot;&gt;&lt;b&gt;+buscarPropiedadDisponibleEnUnPeriodo&lt;/b&gt;&lt;br data-darkreader-inline-border=&quot;&quot; style=&quot;border-color: var(--darkreader-border--border-color); --darkreader-inline-border: var(--darkreader-border--darkreader-border--border-color);&quot;&gt;(fechaInicio : Date, fechaFin : Date): *propiedades&lt;br data-darkreader-inline-border=&quot;&quot; style=&quot;border-color: var(--darkreader-border--border-color); --darkreader-inline-border: var(--darkreader-border--darkreader-border--border-color);&quot;&gt;&lt;/font&gt;&lt;b&gt;+hacerReserva&lt;/b&gt;(prop: Propiedad,&amp;nbsp;fechaInicio : Date, fechaFin : Date,&amp;nbsp;&lt;span style=&quot;text-align: center;&quot;&gt;inquilino:Usuario):&lt;/span&gt;&lt;br data-darkreader-inline-border=&quot;&quot; style=&quot;border-color: var(--darkreader-border--border-color); text-align: center; --darkreader-inline-border: var(--darkreader-border--darkreader-border--border-color);&quot;&gt;&lt;span style=&quot;text-align: center;&quot;&gt;&lt;b&gt;+eliminarReserva&lt;/b&gt;(reserva Reserva):&lt;/span&gt;&lt;br data-darkreader-inline-border=&quot;&quot; style=&quot;border-color: var(--darkreader-border--border-color); text-align: center; --darkreader-inline-border: var(--darkreader-border--darkreader-border--border-color);&quot;&gt;&lt;span style=&quot;text-align: center;&quot;&gt;&lt;b&gt;+ingresosDePropietario&lt;/b&gt;(usuario:Usuario, fechaInicio: Date, fechaFin:date):real&lt;/span&gt;&lt;/font&gt;" style="text;strokeColor=#EEEEEE;fillColor=#56517E;align=left;verticalAlign=middle;spacingLeft=4;spacingRight=4;overflow=hidden;points=[[0,0.5],[1,0.5]];portConstraint=eastwest;rotatable=0;whiteSpace=wrap;html=1;rounded=0;labelBackgroundColor=none;fontColor=#FFFFFF;" parent="S_2G6iyT9Ug-HAIomtoZ-24" vertex="1">
          <mxGeometry y="30" width="240" height="190" as="geometry" />
        </mxCell>
        <mxCell id="S_2G6iyT9Ug-HAIomtoZ-79" style="edgeStyle=orthogonalEdgeStyle;rounded=0;orthogonalLoop=1;jettySize=auto;html=1;labelBackgroundColor=none;strokeColor=#182E3E;fontColor=default;" parent="1" source="S_2G6iyT9Ug-HAIomtoZ-28" target="S_2G6iyT9Ug-HAIomtoZ-32" edge="1">
          <mxGeometry relative="1" as="geometry" />
        </mxCell>
        <mxCell id="S_2G6iyT9Ug-HAIomtoZ-80" value="1 &lt;br&gt;-dateLapse" style="edgeLabel;html=1;align=center;verticalAlign=middle;resizable=0;points=[];rounded=0;labelBackgroundColor=none;fontColor=#FFFFFF;" parent="S_2G6iyT9Ug-HAIomtoZ-79" vertex="1" connectable="0">
          <mxGeometry x="-0.0108" y="-1" relative="1" as="geometry">
            <mxPoint as="offset" />
          </mxGeometry>
        </mxCell>
        <mxCell id="S_2G6iyT9Ug-HAIomtoZ-28" value="Reserva" style="swimlane;fontStyle=0;childLayout=stackLayout;horizontal=1;startSize=30;horizontalStack=0;resizeParent=1;resizeParentMax=0;resizeLast=0;collapsible=1;marginBottom=0;whiteSpace=wrap;html=1;fillColor=#56517E;strokeColor=#EEEEEE;rounded=0;labelBackgroundColor=none;fontColor=#FFFFFF;" parent="1" vertex="1">
          <mxGeometry x="560" y="320" width="240" height="80" as="geometry" />
        </mxCell>
        <mxCell id="S_2G6iyT9Ug-HAIomtoZ-31" value="&lt;font style=&quot;font-size: 10px;&quot;&gt;&lt;b&gt;- cantidadDeDias&lt;/b&gt; : integer&lt;br&gt;+ &amp;lt;&amp;lt;create&amp;gt;&amp;gt; Reserva (fechaInicio : Date, fechaFin : Date)&lt;br&gt;&lt;/font&gt;" style="text;strokeColor=#EEEEEE;fillColor=#56517E;align=left;verticalAlign=middle;spacingLeft=4;spacingRight=4;overflow=hidden;points=[[0,0.5],[1,0.5]];portConstraint=eastwest;rotatable=0;whiteSpace=wrap;html=1;rounded=0;labelBackgroundColor=none;fontColor=#FFFFFF;" parent="S_2G6iyT9Ug-HAIomtoZ-28" vertex="1">
          <mxGeometry y="30" width="240" height="50" as="geometry" />
        </mxCell>
        <mxCell id="S_2G6iyT9Ug-HAIomtoZ-32" value="DateLapse" style="swimlane;fontStyle=0;childLayout=stackLayout;horizontal=1;startSize=30;horizontalStack=0;resizeParent=1;resizeParentMax=0;resizeLast=0;collapsible=1;marginBottom=0;whiteSpace=wrap;html=1;fillColor=#56517E;strokeColor=#EEEEEE;rounded=0;labelBackgroundColor=none;fontColor=#FFFFFF;" parent="1" vertex="1">
          <mxGeometry x="560" y="450" width="240" height="160" as="geometry" />
        </mxCell>
        <mxCell id="S_2G6iyT9Ug-HAIomtoZ-35" value="&lt;font style=&quot;font-size: 10px;&quot;&gt;&lt;b&gt;- from&lt;/b&gt; : Date&lt;br&gt;&lt;b&gt;- to&lt;/b&gt; : Date&lt;br&gt;+ &amp;lt;&amp;lt;create&amp;gt;&amp;gt; DataLapse (from: Date, to : Date)&lt;br&gt;+ getFrom(): Date&lt;br&gt;+ getTo: Date&lt;br&gt;+ sizeInDays(): Integer&lt;br&gt;+ includeDate(other: Date): boolean&lt;br&gt;+ overlaps(anotherDateLapse: DateLapse):boolean&lt;br&gt;&lt;br&gt;&lt;/font&gt;" style="text;strokeColor=#EEEEEE;fillColor=#56517E;align=left;verticalAlign=middle;spacingLeft=4;spacingRight=4;overflow=hidden;points=[[0,0.5],[1,0.5]];portConstraint=eastwest;rotatable=0;whiteSpace=wrap;html=1;rounded=0;labelBackgroundColor=none;fontColor=#FFFFFF;" parent="S_2G6iyT9Ug-HAIomtoZ-32" vertex="1">
          <mxGeometry y="30" width="240" height="130" as="geometry" />
        </mxCell>
        <mxCell id="S_2G6iyT9Ug-HAIomtoZ-84" value="" style="endArrow=none;html=1;rounded=0;labelBackgroundColor=none;strokeColor=#182E3E;fontColor=default;" parent="S_2G6iyT9Ug-HAIomtoZ-32" edge="1">
          <mxGeometry width="50" height="50" relative="1" as="geometry">
            <mxPoint x="240" y="60" as="sourcePoint" />
            <mxPoint x="0.0011764705882342241" y="60" as="targetPoint" />
          </mxGeometry>
        </mxCell>
        <mxCell id="S_2G6iyT9Ug-HAIomtoZ-68" style="edgeStyle=orthogonalEdgeStyle;rounded=0;orthogonalLoop=1;jettySize=auto;html=1;labelBackgroundColor=none;strokeColor=#182E3E;fontColor=default;" parent="1" source="S_2G6iyT9Ug-HAIomtoZ-5" target="S_2G6iyT9Ug-HAIomtoZ-19" edge="1">
          <mxGeometry relative="1" as="geometry">
            <mxPoint x="279.0799999999999" y="380.00000000000006" as="sourcePoint" />
            <mxPoint x="520" y="110" as="targetPoint" />
            <Array as="points">
              <mxPoint x="260" y="280" />
              <mxPoint x="363" y="280" />
              <mxPoint x="363" y="106" />
            </Array>
          </mxGeometry>
        </mxCell>
        <mxCell id="S_2G6iyT9Ug-HAIomtoZ-71" value="*propiedades" style="edgeLabel;html=1;align=center;verticalAlign=middle;resizable=0;points=[];rounded=0;labelBackgroundColor=none;fontColor=#FFFFFF;" parent="S_2G6iyT9Ug-HAIomtoZ-68" vertex="1" connectable="0">
          <mxGeometry x="-0.8461" y="-1" relative="1" as="geometry">
            <mxPoint as="offset" />
          </mxGeometry>
        </mxCell>
        <mxCell id="grDKMSeKTjSGlt3fIqvZ-4" style="edgeStyle=orthogonalEdgeStyle;rounded=0;orthogonalLoop=1;jettySize=auto;html=1;exitX=0.25;exitY=0;exitDx=0;exitDy=0;entryX=0.123;entryY=0.99;entryDx=0;entryDy=0;entryPerimeter=0;strokeColor=#182E3E;" edge="1" parent="1" source="S_2G6iyT9Ug-HAIomtoZ-28" target="S_2G6iyT9Ug-HAIomtoZ-19">
          <mxGeometry relative="1" as="geometry">
            <Array as="points">
              <mxPoint x="590" y="320" />
            </Array>
          </mxGeometry>
        </mxCell>
        <mxCell id="grDKMSeKTjSGlt3fIqvZ-5" value="1&lt;br&gt;propiedad" style="edgeLabel;html=1;align=center;verticalAlign=middle;resizable=0;points=[];fontColor=#FFFFFF;" vertex="1" connectable="0" parent="grDKMSeKTjSGlt3fIqvZ-4">
          <mxGeometry x="-0.0112" y="-4" relative="1" as="geometry">
            <mxPoint as="offset" />
          </mxGeometry>
        </mxCell>
      </root>
    </mxGraphModel>
  </diagram>
</mxfile>
